<?xml version="1.0" standalone="no"?>
<!DOCTYPE svg PUBLIC "-//W3C//DTD SVG 20010904//EN"
 "http://www.w3.org/TR/2001/REC-SVG-20010904/DTD/svg10.dtd">
<svg version="1.0" xmlns="http://www.w3.org/2000/svg"
 width="1280.000000pt" height="1206.000000pt" viewBox="0 0 1280.000000 1206.000000"
 preserveAspectRatio="xMidYMid meet">
<metadata>
Created by potrace 1.15, written by Peter Selinger 2001-2017
</metadata>
<g transform="translate(0.000000,1206.000000) scale(0.100000,-0.100000)"
fill="#000000" stroke="none">
<path d="M3642 12048 c-7 -7 -12 -32 -12 -57 0 -53 64 -688 82 -806 15 -102
15 -164 1 -245 -7 -36 -19 -164 -28 -285 -26 -358 -67 -673 -114 -874 -28
-122 -41 -133 -176 -140 -91 -5 -109 -9 -122 -26 -24 -32 -10 -112 45 -247 69
-171 83 -233 89 -383 10 -241 -34 -331 -175 -357 -49 -9 -75 -9 -124 1 -95 20
-135 24 -173 17 -42 -8 -95 -51 -95 -77 0 -41 84 -257 153 -394 56 -113 108
-251 110 -294 2 -53 -41 -178 -73 -209 -29 -29 -118 -62 -168 -62 -17 0 -68 9
-114 20 -46 11 -102 20 -125 20 -37 0 -43 -3 -49 -26 -20 -80 32 -213 182
-464 64 -107 129 -224 145 -260 62 -147 80 -297 42 -348 -34 -46 -59 -54 -153
-48 -144 9 -367 72 -593 169 -144 62 -228 87 -293 87 -62 0 -71 -9 -104 -105
-11 -32 -32 -74 -47 -93 -45 -59 -210 -123 -448 -174 -99 -21 -135 -23 -355
-22 -245 0 -565 22 -752 49 -126 19 -187 19 -194 1 -9 -24 31 -89 134 -218
168 -211 222 -295 356 -553 44 -82 102 -193 131 -245 30 -52 103 -199 164
-326 170 -357 206 -409 309 -441 78 -25 88 -44 74 -142 -19 -134 -42 -218 -73
-263 -16 -24 -29 -49 -29 -56 0 -43 99 -122 280 -221 196 -108 215 -131 230
-279 10 -97 31 -165 80 -262 61 -120 83 -144 223 -239 169 -114 267 -197 290
-243 24 -49 33 -184 17 -276 -20 -119 -126 -311 -341 -618 -135 -193 -191
-258 -316 -365 -107 -93 -126 -123 -111 -178 16 -57 65 -148 90 -165 12 -9 42
-16 65 -16 53 0 201 -22 370 -55 71 -13 241 -45 378 -70 446 -82 473 -94 440
-202 -21 -68 -19 -89 11 -112 48 -38 79 -40 300 -18 376 36 464 2 464 -181 0
-97 -21 -194 -86 -393 -29 -92 -56 -185 -60 -207 -6 -36 -3 -42 21 -58 60 -39
213 20 478 185 248 153 302 175 481 192 133 13 152 9 170 -36 19 -43 53 -54
104 -31 37 17 60 37 297 266 205 198 385 341 465 369 19 7 77 16 127 21 51 5
105 16 120 24 61 31 221 281 433 675 172 321 311 514 519 722 192 192 248 230
473 320 177 70 182 71 258 67 60 -2 85 -8 107 -24 46 -34 121 -141 265 -381
308 -513 439 -815 493 -1142 23 -136 95 -310 176 -421 32 -43 50 -48 102 -26
67 29 77 47 77 146 l0 90 -58 29 c-64 32 -110 78 -142 142 -12 22 -61 158
-109 302 -148 437 -219 586 -484 1019 -125 203 -178 310 -179 357 0 43 18 82
77 166 61 85 92 111 162 134 119 40 215 50 413 44 133 -4 232 -1 352 11 176
17 221 15 450 -19 138 -21 228 -19 417 11 227 34 380 73 616 156 110 39 220
77 245 85 31 11 96 16 215 18 122 1 191 7 245 20 190 45 338 129 356 202 10
38 -5 54 -81 85 -128 52 -148 100 -72 172 72 69 177 117 427 193 63 19 137 46
163 61 52 28 131 106 125 124 -2 6 -33 27 -68 47 -75 43 -110 88 -110 141 0
31 10 49 69 116 110 126 515 506 642 601 64 49 204 142 310 208 212 131 259
167 259 196 0 39 -29 89 -57 100 -36 13 -243 44 -443 64 -181 19 -298 40 -545
100 -99 23 -229 52 -290 64 -193 37 -218 43 -264 63 -64 27 -99 64 -116 122
-27 90 -15 191 36 304 15 34 83 155 150 269 137 232 207 372 211 424 4 40 6
40 -149 15 -232 -37 -358 -8 -400 93 -25 59 -13 282 21 391 105 341 123 431
92 463 -12 12 -34 17 -70 17 -85 0 -102 31 -116 202 -11 131 1 547 21 721 5
51 14 241 19 422 5 182 14 356 20 388 l10 58 -70 77 c-39 42 -82 102 -97 132
-15 30 -46 84 -71 118 l-44 64 -107 -104 c-133 -130 -200 -184 -426 -338 -203
-138 -276 -192 -355 -263 -30 -27 -84 -66 -120 -87 -80 -48 -233 -100 -293
-100 -41 0 -49 4 -98 55 -30 31 -57 62 -62 70 -4 8 -12 15 -17 15 -5 0 -75
-73 -156 -162 -432 -476 -571 -616 -690 -695 -57 -38 -116 -51 -178 -39 -66
13 -180 139 -297 331 -73 119 -166 337 -248 578 -44 128 -89 255 -101 282 -33
74 -83 155 -96 155 -6 0 -31 -37 -56 -82 -97 -175 -114 -203 -155 -248 -53
-59 -103 -84 -149 -76 -18 4 -74 27 -123 52 -67 33 -102 58 -136 97 -49 56
-134 220 -210 407 -59 144 -103 228 -126 241 -25 13 -41 1 -128 -97 -84 -96
-111 -108 -227 -102 -98 5 -173 44 -409 219 -104 78 -253 184 -330 237 -138
95 -223 164 -400 323 -104 93 -163 136 -334 244 -299 189 -639 481 -845 727
-40 48 -100 98 -118 98 -2 0 -9 -5 -16 -12z"/>
</g>
</svg>
